<svg width="4388" height="1122" viewBox="0 0 4388 1122" fill="none" xmlns="http://www.w3.org/2000/svg">
<path d="M303.45 795.1H356.65L263.55 1003.7C258.883 1014.2 251.767 1022.6 242.2 1028.9C232.633 1034.97 222.133 1038 210.7 1038H159.95C148.517 1038 138.017 1034.97 128.45 1028.9C118.883 1022.6 111.767 1014.2 107.1 1003.7L14 795.1H67.2L150.15 980.95C151.317 983.517 153.067 985.617 155.4 987.25C157.967 988.65 160.65 989.35 163.45 989.35H207.2C213.733 989.35 218.167 986.55 220.5 980.95L303.45 795.1ZM548.308 795.1V843.75H504.208V989.35H548.308V1038H405.508V989.35H449.958V843.75H405.508V795.1H548.308ZM848.706 882.25C867.84 882.25 883.823 886.1 896.656 893.8C909.49 901.5 919.056 911.067 925.356 922.5C931.89 933.933 935.156 946.417 935.156 959.95C935.156 973.483 931.89 985.967 925.356 997.4C919.056 1008.83 909.49 1018.4 896.656 1026.1C883.823 1033.8 867.84 1037.65 848.706 1037.65H607.906V989H848.706C858.74 989 866.206 985.967 871.106 979.9C876.006 973.833 878.34 967.183 878.106 959.95C878.106 952.483 875.656 945.717 870.756 939.65C865.856 933.583 858.506 930.55 848.706 930.55H675.456C658.19 930.55 643.723 927.283 632.056 920.75C620.623 913.983 611.99 905.583 606.156 895.55C600.556 885.283 597.756 874.317 597.756 862.65C597.756 850.983 600.673 840.133 606.506 830.1C612.34 819.833 620.973 811.433 632.406 804.9C643.84 798.133 658.19 794.75 675.456 794.75H910.306V843.05H675.456C668.69 843.05 663.556 845.15 660.056 849.35C656.556 853.317 654.69 857.75 654.456 862.65C654.456 867.55 656.206 872.1 659.706 876.3C663.206 880.267 668.456 882.25 675.456 882.25H848.706ZM1126.93 795.1V843.75H1082.83V989.35H1126.93V1038H984.129V989.35H1028.58V843.75H984.129V795.1H1126.93ZM1422.43 793.7C1439.69 793.7 1455.91 796.85 1471.08 803.15C1486.24 809.217 1499.43 817.733 1510.63 828.7C1521.83 839.433 1530.69 852.267 1537.23 867.2C1543.76 881.9 1547.03 897.883 1547.03 915.15C1547.03 932.183 1543.76 948.167 1537.23 963.1C1530.69 977.8 1521.83 990.633 1510.63 1001.6C1499.43 1012.57 1486.24 1021.2 1471.08 1027.5C1455.91 1033.57 1439.69 1036.6 1422.43 1036.6H1300.63C1283.36 1036.6 1267.14 1033.57 1251.98 1027.5C1236.81 1021.2 1223.63 1012.57 1212.43 1001.6C1201.23 990.633 1192.36 977.8 1185.83 963.1C1179.29 948.167 1176.03 932.183 1176.03 915.15C1176.03 897.883 1179.29 881.9 1185.83 867.2C1192.36 852.267 1201.23 839.433 1212.43 828.7C1223.63 817.733 1236.81 809.217 1251.98 803.15C1267.14 796.85 1283.36 793.7 1300.63 793.7H1422.43ZM1422.43 987.95C1431.76 987.95 1440.51 986.083 1448.68 982.35C1456.84 978.617 1463.96 973.6 1470.03 967.3C1476.09 960.767 1480.88 953.067 1484.38 944.2C1487.88 935.333 1489.63 925.65 1489.63 915.15C1489.63 904.65 1487.88 894.967 1484.38 886.1C1480.88 877 1476.09 869.3 1470.03 863C1463.96 856.467 1456.84 851.333 1448.68 847.6C1440.51 843.867 1431.76 842 1422.43 842H1300.63C1291.29 842 1282.54 843.867 1274.38 847.6C1266.21 851.333 1259.09 856.467 1253.03 863C1246.96 869.3 1242.18 877 1238.68 886.1C1235.18 894.967 1233.43 904.65 1233.43 915.15C1233.43 925.65 1235.18 935.333 1238.68 944.2C1242.18 953.067 1246.96 960.767 1253.03 967.3C1259.09 973.6 1266.21 978.617 1274.38 982.35C1282.54 986.083 1291.29 987.95 1300.63 987.95H1422.43ZM1858.75 794.75H1913V1038H1858.75V982.35L1702.65 856C1691.92 847.367 1679.79 843.05 1666.25 843.05H1650.15V1038H1595.9V794.75H1683.75C1697.29 794.75 1709.42 799.067 1720.15 807.7L1858.75 920.05V794.75Z" fill="#00D4FF"/>
<path d="M4210.5 680C4300.25 680 4373 607.246 4373 517.5C4373 427.754 4300.25 355 4210.5 355C4120.75 355 4048 427.754 4048 517.5C4048 607.246 4120.75 680 4210.5 680Z" stroke="#00D4FF" stroke-width="30" stroke-linecap="round" stroke-linejoin="round"/>
<path d="M4248.04 452.5L4341.31 614.025" stroke="#00D4FF" stroke-width="30" stroke-linecap="round" stroke-linejoin="round"/>
<path d="M4172.96 452.5H4359.51" stroke="#00D4FF" stroke-width="30" stroke-linecap="round" stroke-linejoin="round"/>
<path d="M4135.43 517.5L4228.7 355.975" stroke="#00D4FF" stroke-width="30" stroke-linecap="round" stroke-linejoin="round"/>
<path d="M4172.96 582.5L4079.69 420.975" stroke="#00D4FF" stroke-width="30" stroke-linecap="round" stroke-linejoin="round"/>
<path d="M4248.04 582.5H4061.49" stroke="#00D4FF" stroke-width="30" stroke-linecap="round" stroke-linejoin="round"/>
<path d="M4285.58 517.5L4192.3 679.025" stroke="#00D4FF" stroke-width="30" stroke-linecap="round" stroke-linejoin="round"/>
<path d="M4361.34 0H4205.55C4169.04 0 4139.84 26.7166 4139.84 26.7166L3387.67 728.686H3543.46C3582.4 728.686 3609.18 701.969 3609.18 701.969L3708.98 612.097L3942.66 845.274C3942.66 845.274 3971.87 874.423 4013.26 874.423H4166.61L3808.78 517.366L4361.34 0Z" fill="#00D4FF"/>
<path d="M3694.37 354.625L3611.61 272.043C3611.61 272.043 3582.4 242.895 3541.02 242.895H3387.67L3592.14 446.929L3694.37 354.625Z" fill="#00D4FF"/>
<path d="M3319.61 629.578V726.022H2888.04C2853.81 726.022 2821.66 720.009 2791.6 707.982C2761.53 695.493 2735.4 678.378 2713.19 656.638C2690.99 634.898 2673.41 609.457 2660.46 580.316C2647.51 550.712 2641.03 519.027 2641.03 485.26C2641.03 451.03 2647.51 419.345 2660.46 390.204C2673.41 361.062 2690.99 335.622 2713.19 313.881C2735.4 292.141 2761.53 275.258 2791.6 263.231C2821.66 250.742 2853.81 244.498 2888.04 244.498H3319.61V340.941H2888.04C2872.31 340.941 2857.28 343.717 2842.94 349.267C2828.6 354.355 2815.65 361.756 2804.09 371.47C2792.98 381.184 2783.27 392.979 2774.94 406.856C2767.08 420.27 2761.53 435.072 2758.29 451.262H3130.88V547.705H2767.31C2777.95 572.683 2793.91 592.573 2815.19 607.375C2836.93 622.177 2861.21 629.578 2888.04 629.578H3319.61Z" fill="black"/>
<path d="M2436.12 243.804H2543.67V726.022H2436.12V615.701L2126.67 365.226C2105.39 348.111 2081.34 339.554 2054.51 339.554H2022.6V726.022H1915.05V243.804H2089.2C2116.03 243.804 2140.09 252.361 2161.36 269.476L2436.12 492.198V243.804Z" fill="black"/>
<path d="M1817.09 245V341.444H1729.66V630.081H1817.09V726.524H1534V630.081H1622.12V341.444H1534V245H1817.09Z" fill="black"/>
<path d="M1221.57 244.498C1260.89 244.498 1294.19 251.898 1321.48 266.7C1349.23 281.502 1370.97 300.467 1386.7 323.595C1402.89 346.261 1412.84 371.701 1416.54 399.917C1420.7 427.671 1418.85 454.731 1410.99 481.097C1403.12 507.463 1389.25 531.516 1369.36 553.256C1349.93 574.534 1324.49 590.029 1293.03 599.743L1437.35 726.022H1273.61L1165.37 630.966C1149.64 616.627 1130.91 609.457 1109.17 609.457H884.362V726.716H776.123V244.498H1221.57ZM1221.57 513.707C1240.53 513.707 1256.26 509.544 1268.75 501.218C1281.7 492.429 1291.18 481.559 1297.2 468.608C1303.67 455.656 1306.68 441.779 1306.22 426.977C1306.22 412.175 1302.98 398.299 1296.5 385.347C1290.49 372.395 1281.01 361.756 1268.05 353.43C1255.57 344.642 1240.07 340.247 1221.57 340.247H884.362V513.707H1221.57Z" fill="black"/>
<path d="M607.803 441.548C627.693 453.574 643.42 469.07 654.984 488.035C666.548 507 673.949 527.121 677.187 548.399C680.425 569.214 679.268 590.261 673.718 611.538C668.63 632.816 659.147 652.012 645.27 669.127C631.856 685.779 613.816 699.425 591.151 710.064C568.948 720.702 542.582 726.022 512.053 726.022H0V524.809C0 510.007 2.77536 496.13 8.32607 483.178C14.3393 469.764 22.2028 458.2 31.9166 448.486C41.6303 438.772 52.963 431.14 65.9147 425.59C78.8664 420.039 92.7431 417.263 107.545 417.263H478.055C489.157 417.263 497.251 413.332 502.34 405.468C507.89 397.142 510.666 388.122 510.666 378.408C510.666 368.695 507.89 359.906 502.34 352.043C496.789 343.717 488.694 339.553 478.055 339.553H11.7953V244.498H478.055C509.972 244.498 536.569 250.973 557.847 263.925C579.587 276.877 595.776 293.298 606.415 313.188C617.054 332.615 622.605 353.893 623.067 377.021C623.53 400.149 618.442 421.658 607.803 441.548ZM512.053 628.884C530.556 628.884 544.201 622.871 552.99 610.845C562.241 598.818 566.635 585.635 566.173 571.296C566.173 556.494 561.547 543.08 552.296 531.053C543.507 519.027 530.093 513.013 512.053 513.013H107.545V628.884H512.053Z" fill="black"/>
</svg>
